<?xml version="1.0" standalone="no"?>
<!DOCTYPE svg PUBLIC "-//W3C//DTD SVG 20010904//EN"
 "http://www.w3.org/TR/2001/REC-SVG-20010904/DTD/svg10.dtd">
<svg version="1.0" xmlns="http://www.w3.org/2000/svg"
 width="612.000000pt" height="596.000000pt" viewBox="0 0 612.000000 596.000000"
 preserveAspectRatio="xMidYMid meet">

<g transform="translate(0.000000,596.000000) scale(0.100000,-0.100000)"
fill="#000000" stroke="none">
<path d="M1822 5930 c-191 -50 -312 -162 -417 -382 -79 -167 -115 -357 -115
-605 0 -516 195 -1028 485 -1273 73 -61 203 -135 285 -161 78 -25 228 -29 310
-10 105 25 179 69 270 161 47 47 102 114 123 150 168 290 214 746 117 1159
-71 301 -213 584 -378 754 -99 102 -249 189 -372 217 -74 16 -227 11 -308 -10z"/>
<path d="M4017 5940 c-156 -28 -261 -83 -386 -204 -297 -286 -467 -767 -448
-1265 11 -284 77 -514 203 -707 121 -184 279 -274 483 -274 338 0 635 252 802
680 243 619 200 1285 -101 1591 -125 126 -238 178 -405 184 -55 2 -122 0 -148
-5z"/>
<path d="M555 4184 c-131 -31 -190 -56 -265 -113 -100 -75 -187 -203 -233
-341 -73 -220 -65 -536 19 -772 73 -203 200 -411 347 -564 209 -219 393 -310
647 -321 111 -5 132 -3 190 17 101 34 168 77 250 159 133 134 188 282 197 531
4 119 2 167 -16 269 -34 200 -85 356 -172 528 -151 298 -369 496 -644 583 -68
21 -268 37 -320 24z"/>
<path d="M5310 4175 c-259 -55 -483 -217 -651 -468 -281 -421 -352 -933 -177
-1286 72 -146 207 -259 377 -319 66 -22 93 -26 201 -26 104 -1 137 3 200 22
390 123 741 579 836 1087 26 142 22 345 -10 470 -68 262 -202 421 -425 503
-83 30 -251 39 -351 17z"/>
<path d="M2940 2884 c-345 -63 -539 -158 -839 -411 -419 -355 -797 -917 -979
-1458 -54 -160 -72 -253 -72 -378 0 -226 74 -382 231 -489 252 -171 735 -147
1344 67 396 139 495 140 845 10 159 -59 315 -107 510 -155 439 -108 706 -72
896 120 103 104 153 205 180 363 39 221 -17 437 -216 842 -193 394 -410 696
-701 980 -286 279 -534 427 -819 490 -72 16 -327 29 -380 19z"/>
</g>
</svg>
